#N canvas -8 -8 1304 725 10;
#X obj -96 65 adc~ 3;
#X obj -96 88 snapshot~;
#X obj 775 17 loadbang;
#X msg 775 45 in 11;
#X obj 775 75 s bela_setDigital;
#X obj 886 197 bng 15 250 50 0 empty empty empty 17 7 0 10 -262144
-1 -1;
#X obj 887 25 r bela_digitalIn11;
#X obj 887 49 select 1;
#X msg -96 135 0;
#X msg -12 135 1;
#X msg 70 135 2;
#X obj -95 477 route 0 1 2;
#X obj 12 477 route 0 1 2;
#X obj 405 477 route 0 1 2;
#X obj 502 477 route 0 1 2;
#X text 887 3 Button mapped to a counter;
#X text 265 370 Route goes to different chords;
#X obj 184 370 pack;
#X obj 709 75 print;
#X obj 887 73 t b b;
#X msg 931 91 stop;
#X obj 962 114 del 50;
#X obj 895 155 change;
#X obj 962 49 select 0;
#X obj 895 177 spigot 1;
#X msg 887 136 0;
#X msg 962 135 1;
#X obj 529 204 adc~ 4;
#X obj 529 230 snapshot~;
#X obj 463 181 loadbang;
#X msg 529 277 0;
#X msg 596 301 1;
#X msg 653 324 2;
#X obj -158 44 loadbang;
#X msg 153 135 3;
#X msg 226 135 4;
#X msg 303 135 5;
#X msg 382 135 6;
#X text -17 61 divides X axis;
#X obj 106 477 route 0 1 2;
#X obj 203 477 route 0 1 2;
#X obj 299 477 route 0 1 2;
#X obj 463 204 metro 500;
#X obj -96 110 moses 0.33;
#X obj 135 390 route 0 1 2 3 4 5 6 7;
#X obj 608 477 route 0 1 2;
#X msg 445 135 7;
#X obj 153 110 moses 0.4;
#X obj -12 110 moses 0.35;
#X obj 70 110 moses 0.375;
#X obj 226 112 moses 0.425;
#X obj 303 110 moses 0.45;
#X obj 382 110 moses 0.475;
#X msg 769 355 open magic.wav \, 1;
#X obj 769 387 readsf~;
#X obj 886 451 dac~;
#X obj 886 387 readsf~;
#X obj 1015 387 readsf~;
#X msg 1015 355 open always_short.wav \, 1;
#X msg 886 355 open twinkle.wav \, 1;
#X obj 886 242 random 3;
#X obj 818 168 loadbang;
#X obj 489 256 print;
#X obj 596 322 print;
#X obj 653 346 print;
#X obj 529 298 print;
#X obj 596 280 moses 0.44;
#X obj 529 256 moses 0.37;
#X obj -101 514 C4;
#X obj -68 514 C5;
#X obj -34 514 C6;
#X obj -1 514 D4;
#X obj 32 514 D5;
#X obj 66 514 D6;
#X obj 97 514 E4;
#X obj 130 514 E5;
#X obj 164 514 E6;
#X obj 192 514 F4;
#X obj 225 514 F5;
#X obj 259 514 F6;
#X obj 297 514 G4;
#X obj 330 514 G5;
#X obj 364 514 G6;
#X obj 400 514 A4;
#X obj 433 514 A5;
#X obj 467 514 A6;
#X obj 501 514 B4;
#X obj 534 514 B5;
#X obj 568 514 B6;
#X obj 605 514 C5;
#X obj 638 514 C6;
#X obj 678 514 C7;
#X obj -158 65 metro 750;
#X obj 886 419 *~ 0.4;
#X obj 814 222 print;
#X obj 769 290 select 0;
#X obj 886 290 select 1;
#X obj 1015 290 select;
#X connect 0 0 1 0;
#X connect 1 0 43 0;
#X connect 2 0 3 0;
#X connect 3 0 4 0;
#X connect 3 0 18 0;
#X connect 5 0 60 0;
#X connect 5 0 94 0;
#X connect 6 0 7 0;
#X connect 6 0 23 0;
#X connect 7 0 19 0;
#X connect 8 0 17 0;
#X connect 9 0 17 0;
#X connect 10 0 17 0;
#X connect 11 0 68 0;
#X connect 11 1 69 0;
#X connect 11 2 70 0;
#X connect 12 0 71 0;
#X connect 12 1 72 0;
#X connect 12 2 73 0;
#X connect 13 0 83 0;
#X connect 13 1 84 0;
#X connect 13 2 85 0;
#X connect 14 0 86 0;
#X connect 14 1 87 0;
#X connect 14 2 88 0;
#X connect 17 0 44 0;
#X connect 19 0 25 0;
#X connect 19 1 20 0;
#X connect 20 0 21 0;
#X connect 21 0 26 0;
#X connect 22 0 24 0;
#X connect 22 0 24 1;
#X connect 23 0 21 0;
#X connect 24 0 5 0;
#X connect 25 0 22 0;
#X connect 26 0 22 0;
#X connect 27 0 28 0;
#X connect 28 0 62 0;
#X connect 28 0 67 0;
#X connect 29 0 42 0;
#X connect 30 0 17 1;
#X connect 30 0 65 0;
#X connect 31 0 17 1;
#X connect 31 0 63 0;
#X connect 32 0 17 1;
#X connect 32 0 64 0;
#X connect 33 0 92 0;
#X connect 34 0 17 0;
#X connect 35 0 17 0;
#X connect 36 0 17 0;
#X connect 37 0 17 0;
#X connect 39 0 74 0;
#X connect 39 1 75 0;
#X connect 39 2 76 0;
#X connect 40 0 77 0;
#X connect 40 1 78 0;
#X connect 40 2 79 0;
#X connect 41 0 80 0;
#X connect 41 1 81 0;
#X connect 41 2 82 0;
#X connect 42 0 28 0;
#X connect 43 0 8 0;
#X connect 43 1 48 0;
#X connect 44 0 11 0;
#X connect 44 1 12 0;
#X connect 44 2 39 0;
#X connect 44 3 40 0;
#X connect 44 4 41 0;
#X connect 44 5 13 0;
#X connect 44 6 14 0;
#X connect 44 7 45 0;
#X connect 45 0 89 0;
#X connect 45 1 90 0;
#X connect 45 2 91 0;
#X connect 46 0 17 0;
#X connect 47 0 34 0;
#X connect 47 1 50 0;
#X connect 48 0 9 0;
#X connect 48 1 49 0;
#X connect 49 0 10 0;
#X connect 49 1 47 0;
#X connect 50 0 35 0;
#X connect 50 1 51 0;
#X connect 51 0 36 0;
#X connect 51 1 52 0;
#X connect 52 0 37 0;
#X connect 52 1 46 0;
#X connect 53 0 54 0;
#X connect 54 0 93 0;
#X connect 56 0 93 0;
#X connect 57 0 93 0;
#X connect 58 0 57 0;
#X connect 59 0 56 0;
#X connect 60 0 96 0;
#X connect 60 0 97 0;
#X connect 60 0 95 0;
#X connect 61 0 5 0;
#X connect 66 0 31 0;
#X connect 66 1 32 0;
#X connect 67 0 30 0;
#X connect 67 1 66 0;
#X connect 92 0 1 0;
#X connect 93 0 55 0;
#X connect 93 0 55 1;
#X connect 95 0 53 0;
#X connect 96 0 59 0;
#X connect 97 0 58 0;
